<svg height="42" viewBox="0 0 422 67" fill="none" xmlns="http://www.w3.org/2000/svg">
<path d="M5.06 55.54C5.06 54.4733 5.20667 53.5133 5.5 52.66C5.79333 51.8067 6.2 51.0867 6.72 50.5C7.25333 49.9 7.86667 49.4533 8.56 49.16C9.26667 48.8533 10.0267 48.7 10.84 48.7C11.6133 48.7 12.3267 48.84 12.98 49.12C13.6467 49.4 14.2267 49.82 14.72 50.38C15.2133 50.94 15.5933 51.64 15.86 52.48C16.1267 53.3067 16.26 54.26 16.26 55.34C16.26 56.4067 16.1133 57.3667 15.82 58.22C15.54 59.0733 15.1333 59.8 14.6 60.4C14.08 60.9867 13.4733 61.4333 12.78 61.74C12.0867 62.0333 11.3333 62.18 10.52 62.18C9.73333 62.18 9.00667 62.04 8.34 61.76C7.68667 61.48 7.11333 61.06 6.62 60.5C6.12667 59.94 5.74 59.2467 5.46 58.42C5.19333 57.58 5.06 56.62 5.06 55.54ZM6.72 55.34C6.72 56.3133 6.82 57.1467 7.02 57.84C7.22 58.5333 7.5 59.1 7.86 59.54C8.22 59.9667 8.63333 60.28 9.1 60.48C9.58 60.6667 10.1 60.76 10.66 60.76C11.1667 60.76 11.6533 60.6667 12.12 60.48C12.5867 60.28 13.0067 59.9733 13.38 59.56C13.7533 59.1467 14.0533 58.6067 14.28 57.94C14.5067 57.26 14.62 56.46 14.62 55.54C14.62 54.5667 14.52 53.7333 14.32 53.04C14.12 52.3333 13.84 51.7667 13.48 51.34C13.12 50.9133 12.7 50.6067 12.22 50.42C11.7533 50.22 11.24 50.12 10.68 50.12C10.1733 50.12 9.68667 50.22 9.22 50.42C8.75333 50.6067 8.33333 50.9067 7.96 51.32C7.58667 51.7333 7.28667 52.28 7.06 52.96C6.83333 53.6267 6.72 54.42 6.72 55.34ZM24.9798 62V55.58C24.9798 55.26 24.9332 54.9733 24.8398 54.72C24.7465 54.4667 24.6065 54.2533 24.4198 54.08C24.2332 53.8933 23.9998 53.7533 23.7198 53.66C23.4532 53.5533 23.1465 53.5 22.7998 53.5C22.5732 53.5 22.3665 53.5133 22.1798 53.54C21.9932 53.5533 21.8065 53.58 21.6198 53.62C21.4332 53.66 21.2465 53.7133 21.0598 53.78C20.8732 53.8333 20.6732 53.9067 20.4598 54V62H18.9398V52.28L20.3998 52.16V52.82C20.6265 52.6867 20.8465 52.58 21.0598 52.5C21.2732 52.4067 21.4798 52.3333 21.6798 52.28C21.8932 52.2133 22.1132 52.1667 22.3398 52.14C22.5665 52.1133 22.8132 52.1 23.0798 52.1C23.6265 52.1 24.1132 52.1733 24.5398 52.32C24.9665 52.4667 25.3265 52.68 25.6198 52.96C25.9132 53.24 26.1332 53.5867 26.2798 54C26.4265 54.4133 26.4998 54.8867 26.4998 55.42V62H24.9798ZM28.6848 53.46V52.22H29.8648V50.5L31.3648 50.28V52.22H33.9248V53.46H31.3648V58.96C31.3648 59.2667 31.3982 59.5333 31.4648 59.76C31.5448 59.9867 31.6515 60.1733 31.7848 60.32C31.9315 60.4667 32.0982 60.58 32.2848 60.66C32.4715 60.7267 32.6782 60.76 32.9048 60.76C33.0248 60.76 33.1382 60.76 33.2448 60.76C33.3515 60.7467 33.4515 60.7333 33.5448 60.72C33.6515 60.7067 33.7582 60.6933 33.8648 60.68C33.9848 60.6533 34.1048 60.6267 34.2248 60.6V61.9C34.0648 61.94 33.9115 61.9733 33.7648 62C33.6315 62.0267 33.4982 62.0467 33.3648 62.06C33.2315 62.0867 33.0982 62.1 32.9648 62.1C32.8315 62.1133 32.6848 62.12 32.5248 62.12C32.1382 62.12 31.7848 62.0667 31.4648 61.96C31.1582 61.8533 30.8782 61.68 30.6248 61.44C30.3848 61.2 30.1982 60.8867 30.0648 60.5C29.9315 60.1 29.8648 59.62 29.8648 59.06V53.46H28.6848ZM48.6055 52.22L45.5255 62H43.5855L41.7855 56.08H41.6855L39.9655 62H38.0255L34.9255 52.22H36.6655L39.0455 60.6H39.1455L41.0855 54.18L40.4455 52.22H42.1255L44.6055 60.6H44.7055L47.0455 52.22H48.6055ZM50.3409 49.02C50.3409 48.8733 50.3609 48.74 50.4009 48.62C50.4543 48.4867 50.5209 48.38 50.6009 48.3C50.6943 48.22 50.8009 48.16 50.9209 48.12C51.0409 48.0667 51.1743 48.04 51.3209 48.04C51.4676 48.04 51.6009 48.0667 51.7209 48.12C51.8409 48.16 51.9409 48.22 52.0209 48.3C52.1009 48.38 52.1609 48.48 52.2009 48.6C52.2543 48.72 52.2809 48.86 52.2809 49.02C52.2809 49.1667 52.2543 49.3 52.2009 49.42C52.1609 49.54 52.1009 49.64 52.0209 49.72C51.9409 49.8 51.8409 49.8667 51.7209 49.92C51.6009 49.96 51.4676 49.98 51.3209 49.98C51.1743 49.98 51.0409 49.96 50.9209 49.92C50.8009 49.8667 50.6943 49.8 50.6009 49.72C50.5209 49.64 50.4543 49.54 50.4009 49.42C50.3609 49.3 50.3409 49.1667 50.3409 49.02ZM52.0809 52.16V62H50.5609V52.28L52.0809 52.16ZM56.8075 57.32V62H55.2875V48.14L56.8075 48.02V56H57.6875L60.9475 52.22H62.8275L59.0275 56.44L63.1675 62H61.2675L57.8275 57.32H56.8075ZM66.3388 57.32V62H64.8188V48.14L66.3388 48.02V56H67.2188L70.4788 52.22H72.3588L68.5588 56.44L72.6988 62H70.7988L67.3588 57.32H66.3388ZM73.3984 57.12C73.3984 56.3067 73.4984 55.58 73.6984 54.94C73.9118 54.3 74.2051 53.7667 74.5784 53.34C74.9518 52.9133 75.3851 52.5933 75.8784 52.38C76.3851 52.1533 76.9184 52.04 77.4784 52.04C78.0651 52.04 78.5851 52.1267 79.0384 52.3C79.5051 52.46 79.8984 52.7067 80.2184 53.04C80.5384 53.3733 80.7784 53.7867 80.9384 54.28C81.1118 54.76 81.1984 55.32 81.1984 55.96C81.1984 56.0933 81.1984 56.2067 81.1984 56.3C81.1984 56.38 81.1984 56.4733 81.1984 56.58C81.1984 56.6733 81.1918 56.7733 81.1784 56.88C81.1784 56.9733 81.1718 57.0667 81.1584 57.16H74.9184C74.9184 57.7733 74.9918 58.3067 75.1384 58.76C75.2984 59.2133 75.5184 59.5867 75.7984 59.88C76.0784 60.1733 76.4051 60.3933 76.7784 60.54C77.1651 60.6733 77.5918 60.74 78.0584 60.74C78.3384 60.74 78.6051 60.7267 78.8584 60.7C79.1118 60.6733 79.3584 60.64 79.5984 60.6C79.8384 60.5467 80.0784 60.48 80.3184 60.4C80.5584 60.32 80.7984 60.2267 81.0384 60.12V61.48C80.7718 61.6 80.5184 61.7 80.2784 61.78C80.0384 61.8467 79.7918 61.9067 79.5384 61.96C79.2984 62.0133 79.0384 62.0533 78.7584 62.08C78.4918 62.1067 78.1984 62.12 77.8784 62.12C77.1984 62.12 76.5784 62.02 76.0184 61.82C75.4718 61.62 74.9984 61.32 74.5984 60.92C74.2118 60.5067 73.9118 59.9867 73.6984 59.36C73.4984 58.72 73.3984 57.9733 73.3984 57.12ZM74.9784 55.94H79.5784C79.5784 55.5133 79.5318 55.1333 79.4384 54.8C79.3451 54.4667 79.2051 54.1933 79.0184 53.98C78.8318 53.7533 78.5984 53.5867 78.3184 53.48C78.0518 53.3733 77.7451 53.32 77.3984 53.32C77.0918 53.32 76.8051 53.38 76.5384 53.5C76.2718 53.62 76.0251 53.7933 75.7984 54.02C75.5851 54.2467 75.4051 54.5267 75.2584 54.86C75.1251 55.18 75.0318 55.54 74.9784 55.94ZM85.2059 48.02V62H83.6859V48.14L85.2059 48.02ZM89.2925 59.36C89.2925 59.5733 89.3258 59.7733 89.3925 59.96C89.4725 60.1333 89.5858 60.2867 89.7325 60.42C89.8792 60.54 90.0592 60.6333 90.2725 60.7C90.4992 60.7667 90.7592 60.8 91.0525 60.8C91.2925 60.8 91.5192 60.7867 91.7325 60.76C91.9592 60.7333 92.1725 60.6933 92.3725 60.64C92.5858 60.5733 92.7925 60.5 92.9925 60.42C93.1925 60.3267 93.3925 60.22 93.5925 60.1V57.8C93.5792 57.8 93.4658 57.8 93.2525 57.8C93.0525 57.7867 92.8925 57.78 92.7725 57.78C92.6525 57.7667 92.5325 57.76 92.4125 57.76C92.3058 57.76 92.1925 57.76 92.0725 57.76C91.5792 57.76 91.1525 57.8 90.7925 57.88C90.4325 57.96 90.1392 58.0733 89.9125 58.22C89.6992 58.3667 89.5392 58.54 89.4325 58.74C89.3392 58.9267 89.2925 59.1333 89.2925 59.36ZM95.0525 55.24V62H93.6325V61.32C93.3925 61.4667 93.1592 61.5933 92.9325 61.7C92.7192 61.7933 92.4992 61.8733 92.2725 61.94C92.0458 62.0067 91.8058 62.0533 91.5525 62.08C91.3125 62.1067 91.0392 62.12 90.7325 62.12C90.2658 62.12 89.8458 62.06 89.4725 61.94C89.0992 61.8067 88.7792 61.6267 88.5125 61.4C88.2458 61.16 88.0392 60.88 87.8925 60.56C87.7592 60.2267 87.6925 59.8667 87.6925 59.48C87.6925 59.0533 87.7858 58.6667 87.9725 58.32C88.1592 57.96 88.4325 57.6467 88.7925 57.38C89.1658 57.1133 89.6258 56.9067 90.1725 56.76C90.7325 56.6133 91.3792 56.54 92.1125 56.54C92.2858 56.54 92.4192 56.54 92.5125 56.54C92.6192 56.54 92.7258 56.54 92.8325 56.54C92.9392 56.54 93.0525 56.5467 93.1725 56.56C93.3058 56.56 93.4458 56.56 93.5925 56.56V55.5C93.5925 55.18 93.5458 54.8933 93.4525 54.64C93.3592 54.3867 93.2192 54.18 93.0325 54.02C92.8592 53.8467 92.6258 53.72 92.3325 53.64C92.0525 53.5467 91.7258 53.5 91.3525 53.5C91.1258 53.5 90.8925 53.5133 90.6525 53.54C90.4258 53.5667 90.1925 53.6067 89.9525 53.66C89.7258 53.7133 89.4858 53.78 89.2325 53.86C88.9925 53.94 88.7458 54.0333 88.4925 54.14L88.1725 52.86C88.4792 52.7267 88.7658 52.6133 89.0325 52.52C89.3125 52.4133 89.5858 52.3333 89.8525 52.28C90.1192 52.2133 90.3925 52.1667 90.6725 52.14C90.9525 52.1133 91.2525 52.1 91.5725 52.1C92.1325 52.1 92.6258 52.1733 93.0525 52.32C93.4925 52.4533 93.8592 52.6533 94.1525 52.92C94.4458 53.1867 94.6658 53.52 94.8125 53.92C94.9725 54.3067 95.0525 54.7467 95.0525 55.24ZM98.9995 59.36C98.9995 59.5733 99.0329 59.7733 99.0995 59.96C99.1795 60.1333 99.2929 60.2867 99.4395 60.42C99.5862 60.54 99.7662 60.6333 99.9795 60.7C100.206 60.7667 100.466 60.8 100.76 60.8C101 60.8 101.226 60.7867 101.44 60.76C101.666 60.7333 101.88 60.6933 102.08 60.64C102.293 60.5733 102.5 60.5 102.7 60.42C102.9 60.3267 103.1 60.22 103.3 60.1V57.8C103.286 57.8 103.173 57.8 102.96 57.8C102.76 57.7867 102.6 57.78 102.48 57.78C102.36 57.7667 102.24 57.76 102.12 57.76C102.013 57.76 101.9 57.76 101.78 57.76C101.286 57.76 100.86 57.8 100.5 57.88C100.14 57.96 99.8462 58.0733 99.6195 58.22C99.4062 58.3667 99.2462 58.54 99.1395 58.74C99.0462 58.9267 98.9995 59.1333 98.9995 59.36ZM104.76 55.24V62H103.34V61.32C103.1 61.4667 102.866 61.5933 102.64 61.7C102.426 61.7933 102.206 61.8733 101.98 61.94C101.753 62.0067 101.513 62.0533 101.26 62.08C101.02 62.1067 100.746 62.12 100.44 62.12C99.9729 62.12 99.5529 62.06 99.1795 61.94C98.8062 61.8067 98.4862 61.6267 98.2195 61.4C97.9529 61.16 97.7462 60.88 97.5995 60.56C97.4662 60.2267 97.3995 59.8667 97.3995 59.48C97.3995 59.0533 97.4929 58.6667 97.6795 58.32C97.8662 57.96 98.1395 57.6467 98.4995 57.38C98.8729 57.1133 99.3329 56.9067 99.8795 56.76C100.44 56.6133 101.086 56.54 101.82 56.54C101.993 56.54 102.126 56.54 102.22 56.54C102.326 56.54 102.433 56.54 102.54 56.54C102.646 56.54 102.76 56.5467 102.88 56.56C103.013 56.56 103.153 56.56 103.3 56.56V55.5C103.3 55.18 103.253 54.8933 103.16 54.64C103.066 54.3867 102.926 54.18 102.74 54.02C102.566 53.8467 102.333 53.72 102.04 53.64C101.76 53.5467 101.433 53.5 101.06 53.5C100.833 53.5 100.6 53.5133 100.36 53.54C100.133 53.5667 99.8995 53.6067 99.6595 53.66C99.4329 53.7133 99.1929 53.78 98.9395 53.86C98.6995 53.94 98.4529 54.0333 98.1995 54.14L97.8795 52.86C98.1862 52.7267 98.4729 52.6133 98.7395 52.52C99.0195 52.4133 99.2929 52.3333 99.5595 52.28C99.8262 52.2133 100.1 52.1667 100.38 52.14C100.66 52.1133 100.96 52.1 101.28 52.1C101.84 52.1 102.333 52.1733 102.76 52.32C103.2 52.4533 103.566 52.6533 103.86 52.92C104.153 53.1867 104.373 53.52 104.52 53.92C104.68 54.3067 104.76 54.7467 104.76 55.24ZM112.547 52.24L112.367 53.74C112.26 53.7133 112.16 53.6933 112.067 53.68C111.973 53.6533 111.88 53.6333 111.787 53.62C111.707 53.6067 111.62 53.6 111.527 53.6C111.447 53.5867 111.353 53.58 111.247 53.58C111.087 53.58 110.927 53.6 110.767 53.64C110.62 53.68 110.473 53.74 110.327 53.82C110.18 53.9 110.027 54.0067 109.867 54.14C109.707 54.26 109.533 54.4133 109.347 54.6V62H107.827V52.28L109.327 52.16V53.3C109.513 53.0867 109.693 52.9067 109.867 52.76C110.04 52.6 110.207 52.4733 110.367 52.38C110.54 52.2867 110.713 52.22 110.887 52.18C111.06 52.1267 111.233 52.1 111.407 52.1C111.513 52.1 111.613 52.1067 111.707 52.12C111.8 52.12 111.887 52.1267 111.967 52.14C112.06 52.14 112.153 52.1533 112.247 52.18C112.34 52.1933 112.44 52.2133 112.547 52.24ZM113.668 61.8V60.4C113.894 60.4667 114.121 60.5267 114.348 60.58C114.574 60.62 114.801 60.6533 115.028 60.68C115.268 60.7067 115.508 60.7267 115.748 60.74C115.988 60.7533 116.234 60.76 116.488 60.76C116.834 60.76 117.141 60.7267 117.408 60.66C117.674 60.58 117.901 60.48 118.088 60.36C118.274 60.2267 118.414 60.0733 118.508 59.9C118.601 59.7133 118.648 59.5133 118.648 59.3C118.648 59.1133 118.614 58.9467 118.548 58.8C118.494 58.64 118.401 58.5 118.268 58.38C118.134 58.26 117.961 58.1533 117.748 58.06C117.548 57.9533 117.301 57.86 117.008 57.78L115.868 57.44C115.534 57.3467 115.234 57.2267 114.968 57.08C114.714 56.92 114.501 56.74 114.328 56.54C114.154 56.3267 114.021 56.0867 113.928 55.82C113.834 55.5533 113.788 55.26 113.788 54.94C113.788 54.54 113.868 54.1667 114.028 53.82C114.201 53.4733 114.441 53.1733 114.748 52.92C115.068 52.6533 115.448 52.4533 115.888 52.32C116.328 52.1733 116.814 52.1 117.348 52.1C117.574 52.1 117.788 52.1067 117.988 52.12C118.201 52.12 118.401 52.1333 118.588 52.16C118.788 52.1733 118.981 52.1933 119.168 52.22C119.354 52.2467 119.534 52.28 119.708 52.32L119.548 53.66C119.348 53.62 119.154 53.5867 118.968 53.56C118.794 53.5333 118.614 53.5133 118.428 53.5C118.254 53.4867 118.074 53.48 117.888 53.48C117.701 53.4667 117.494 53.46 117.268 53.46C116.948 53.46 116.661 53.4933 116.408 53.56C116.154 53.6267 115.941 53.72 115.768 53.84C115.594 53.96 115.461 54.1067 115.368 54.28C115.288 54.44 115.248 54.6133 115.248 54.8C115.248 54.9867 115.274 55.1533 115.328 55.3C115.381 55.4333 115.461 55.5533 115.568 55.66C115.688 55.7667 115.834 55.8667 116.008 55.96C116.181 56.04 116.388 56.1133 116.628 56.18L117.768 56.48C118.168 56.5867 118.514 56.72 118.808 56.88C119.101 57.04 119.348 57.2267 119.548 57.44C119.748 57.64 119.894 57.8733 119.988 58.14C120.081 58.3933 120.128 58.6733 120.128 58.98C120.128 59.4333 120.034 59.8533 119.848 60.24C119.674 60.6267 119.421 60.96 119.088 61.24C118.768 61.52 118.374 61.74 117.908 61.9C117.454 62.0467 116.954 62.12 116.408 62.12C116.128 62.12 115.868 62.1133 115.628 62.1C115.388 62.0867 115.154 62.0667 114.928 62.04C114.714 62.0133 114.501 61.98 114.288 61.94C114.088 61.9 113.881 61.8533 113.668 61.8ZM125.694 60.78C126.174 60.78 126.62 60.7 127.034 60.54C127.447 60.38 127.8 60.1467 128.094 59.84C128.4 59.52 128.634 59.1267 128.794 58.66C128.967 58.18 129.054 57.6333 129.054 57.02C129.054 56.4067 128.987 55.88 128.854 55.44C128.72 54.9867 128.527 54.62 128.274 54.34C128.034 54.0467 127.734 53.8333 127.374 53.7C127.027 53.5667 126.627 53.5 126.174 53.5C125.987 53.5 125.807 53.5133 125.634 53.54C125.46 53.5533 125.287 53.58 125.114 53.62C124.94 53.66 124.767 53.7133 124.594 53.78C124.42 53.8333 124.24 53.9067 124.054 54V60.62C124.2 60.6467 124.34 60.6733 124.474 60.7C124.607 60.7133 124.74 60.7267 124.874 60.74C125.007 60.7533 125.14 60.7667 125.274 60.78C125.407 60.78 125.547 60.78 125.694 60.78ZM122.534 65.82V52.28L123.994 52.16V52.78C124.194 52.6733 124.394 52.58 124.594 52.5C124.807 52.4067 125.02 52.3333 125.234 52.28C125.447 52.2133 125.667 52.1667 125.894 52.14C126.134 52.1133 126.38 52.1 126.634 52.1C127.234 52.1 127.78 52.2 128.274 52.4C128.767 52.5867 129.187 52.88 129.534 53.28C129.894 53.68 130.167 54.1867 130.354 54.8C130.54 55.4 130.634 56.1 130.634 56.9C130.634 57.7133 130.507 58.4467 130.254 59.1C130.014 59.74 129.66 60.2867 129.194 60.74C128.74 61.1933 128.194 61.54 127.554 61.78C126.927 62.0067 126.234 62.12 125.474 62.12C125.34 62.12 125.214 62.1133 125.094 62.1C124.974 62.1 124.854 62.0933 124.734 62.08C124.627 62.08 124.514 62.0667 124.394 62.04C124.287 62.0267 124.174 62.0067 124.054 61.98V65.82H122.534ZM141.477 57C141.477 57.7867 141.357 58.5067 141.117 59.16C140.877 59.8 140.543 60.3467 140.117 60.8C139.703 61.2533 139.217 61.6 138.657 61.84C138.11 62.0667 137.53 62.18 136.917 62.18C136.263 62.18 135.67 62.08 135.137 61.88C134.617 61.6667 134.17 61.3533 133.797 60.94C133.423 60.5133 133.137 59.9933 132.937 59.38C132.737 58.7533 132.637 58.04 132.637 57.24C132.637 56.4533 132.757 55.7333 132.997 55.08C133.237 54.4267 133.563 53.88 133.977 53.44C134.403 52.9867 134.89 52.64 135.437 52.4C135.983 52.16 136.563 52.04 137.177 52.04C137.83 52.04 138.423 52.1467 138.957 52.36C139.49 52.5733 139.943 52.8867 140.317 53.3C140.69 53.7133 140.977 54.2333 141.177 54.86C141.377 55.4733 141.477 56.1867 141.477 57ZM139.897 57.06C139.897 56.46 139.83 55.9333 139.697 55.48C139.577 55.0133 139.39 54.6267 139.137 54.32C138.897 54.0133 138.597 53.7867 138.237 53.64C137.89 53.48 137.49 53.4 137.037 53.4C136.623 53.4 136.243 53.4867 135.897 53.66C135.55 53.82 135.25 54.0667 134.997 54.4C134.743 54.72 134.55 55.1133 134.417 55.58C134.283 56.0467 134.217 56.5733 134.217 57.16C134.217 57.76 134.277 58.2933 134.397 58.76C134.53 59.2133 134.717 59.5933 134.957 59.9C135.21 60.2067 135.51 60.44 135.857 60.6C136.217 60.7467 136.623 60.82 137.077 60.82C137.49 60.82 137.87 60.7333 138.217 60.56C138.563 60.3867 138.863 60.14 139.117 59.82C139.37 59.4867 139.563 59.0867 139.697 58.62C139.83 58.1533 139.897 57.6333 139.897 57.06ZM148.797 52.24L148.617 53.74C148.51 53.7133 148.41 53.6933 148.317 53.68C148.223 53.6533 148.13 53.6333 148.037 53.62C147.957 53.6067 147.87 53.6 147.777 53.6C147.697 53.5867 147.603 53.58 147.497 53.58C147.337 53.58 147.177 53.6 147.017 53.64C146.87 53.68 146.723 53.74 146.577 53.82C146.43 53.9 146.277 54.0067 146.117 54.14C145.957 54.26 145.783 54.4133 145.597 54.6V62H144.077V52.28L145.577 52.16V53.3C145.763 53.0867 145.943 52.9067 146.117 52.76C146.29 52.6 146.457 52.4733 146.617 52.38C146.79 52.2867 146.963 52.22 147.137 52.18C147.31 52.1267 147.483 52.1 147.657 52.1C147.763 52.1 147.863 52.1067 147.957 52.12C148.05 52.12 148.137 52.1267 148.217 52.14C148.31 52.14 148.403 52.1533 148.497 52.18C148.59 52.1933 148.69 52.2133 148.797 52.24ZM149.818 53.46V52.22H150.998V50.5L152.498 50.28V52.22H155.058V53.46H152.498V58.96C152.498 59.2667 152.531 59.5333 152.598 59.76C152.678 59.9867 152.784 60.1733 152.918 60.32C153.064 60.4667 153.231 60.58 153.418 60.66C153.604 60.7267 153.811 60.76 154.038 60.76C154.158 60.76 154.271 60.76 154.378 60.76C154.484 60.7467 154.584 60.7333 154.678 60.72C154.784 60.7067 154.891 60.6933 154.998 60.68C155.118 60.6533 155.238 60.6267 155.358 60.6V61.9C155.198 61.94 155.044 61.9733 154.898 62C154.764 62.0267 154.631 62.0467 154.498 62.06C154.364 62.0867 154.231 62.1 154.098 62.1C153.964 62.1133 153.818 62.12 153.658 62.12C153.271 62.12 152.918 62.0667 152.598 61.96C152.291 61.8533 152.011 61.68 151.758 61.44C151.518 61.2 151.331 60.8867 151.198 60.5C151.064 60.1 150.998 59.62 150.998 59.06V53.46H149.818ZM158.218 59.36C158.218 59.5733 158.252 59.7733 158.318 59.96C158.398 60.1333 158.512 60.2867 158.658 60.42C158.805 60.54 158.985 60.6333 159.198 60.7C159.425 60.7667 159.685 60.8 159.978 60.8C160.218 60.8 160.445 60.7867 160.658 60.76C160.885 60.7333 161.098 60.6933 161.298 60.64C161.512 60.5733 161.718 60.5 161.918 60.42C162.118 60.3267 162.318 60.22 162.518 60.1V57.8C162.505 57.8 162.392 57.8 162.178 57.8C161.978 57.7867 161.818 57.78 161.698 57.78C161.578 57.7667 161.458 57.76 161.338 57.76C161.232 57.76 161.118 57.76 160.998 57.76C160.505 57.76 160.078 57.8 159.718 57.88C159.358 57.96 159.065 58.0733 158.838 58.22C158.625 58.3667 158.465 58.54 158.358 58.74C158.265 58.9267 158.218 59.1333 158.218 59.36ZM163.978 55.24V62H162.558V61.32C162.318 61.4667 162.085 61.5933 161.858 61.7C161.645 61.7933 161.425 61.8733 161.198 61.94C160.972 62.0067 160.732 62.0533 160.478 62.08C160.238 62.1067 159.965 62.12 159.658 62.12C159.192 62.12 158.772 62.06 158.398 61.94C158.025 61.8067 157.705 61.6267 157.438 61.4C157.172 61.16 156.965 60.88 156.818 60.56C156.685 60.2267 156.618 59.8667 156.618 59.48C156.618 59.0533 156.712 58.6667 156.898 58.32C157.085 57.96 157.358 57.6467 157.718 57.38C158.092 57.1133 158.552 56.9067 159.098 56.76C159.658 56.6133 160.305 56.54 161.038 56.54C161.212 56.54 161.345 56.54 161.438 56.54C161.545 56.54 161.652 56.54 161.758 56.54C161.865 56.54 161.978 56.5467 162.098 56.56C162.232 56.56 162.372 56.56 162.518 56.56V55.5C162.518 55.18 162.472 54.8933 162.378 54.64C162.285 54.3867 162.145 54.18 161.958 54.02C161.785 53.8467 161.552 53.72 161.258 53.64C160.978 53.5467 160.652 53.5 160.278 53.5C160.052 53.5 159.818 53.5133 159.578 53.54C159.352 53.5667 159.118 53.6067 158.878 53.66C158.652 53.7133 158.412 53.78 158.158 53.86C157.918 53.94 157.672 54.0333 157.418 54.14L157.098 52.86C157.405 52.7267 157.692 52.6133 157.958 52.52C158.238 52.4133 158.512 52.3333 158.778 52.28C159.045 52.2133 159.318 52.1667 159.598 52.14C159.878 52.1133 160.178 52.1 160.498 52.1C161.058 52.1 161.552 52.1733 161.978 52.32C162.418 52.4533 162.785 52.6533 163.078 52.92C163.372 53.1867 163.592 53.52 163.738 53.92C163.898 54.3067 163.978 54.7467 163.978 55.24ZM167.925 59.36C167.925 59.5733 167.959 59.7733 168.025 59.96C168.105 60.1333 168.219 60.2867 168.365 60.42C168.512 60.54 168.692 60.6333 168.905 60.7C169.132 60.7667 169.392 60.8 169.685 60.8C169.925 60.8 170.152 60.7867 170.365 60.76C170.592 60.7333 170.805 60.6933 171.005 60.64C171.219 60.5733 171.425 60.5 171.625 60.42C171.825 60.3267 172.025 60.22 172.225 60.1V57.8C172.212 57.8 172.099 57.8 171.885 57.8C171.685 57.7867 171.525 57.78 171.405 57.78C171.285 57.7667 171.165 57.76 171.045 57.76C170.939 57.76 170.825 57.76 170.705 57.76C170.212 57.76 169.785 57.8 169.425 57.88C169.065 57.96 168.772 58.0733 168.545 58.22C168.332 58.3667 168.172 58.54 168.065 58.74C167.972 58.9267 167.925 59.1333 167.925 59.36ZM173.685 55.24V62H172.265V61.32C172.025 61.4667 171.792 61.5933 171.565 61.7C171.352 61.7933 171.132 61.8733 170.905 61.94C170.679 62.0067 170.439 62.0533 170.185 62.08C169.945 62.1067 169.672 62.12 169.365 62.12C168.899 62.12 168.479 62.06 168.105 61.94C167.732 61.8067 167.412 61.6267 167.145 61.4C166.879 61.16 166.672 60.88 166.525 60.56C166.392 60.2267 166.325 59.8667 166.325 59.48C166.325 59.0533 166.419 58.6667 166.605 58.32C166.792 57.96 167.065 57.6467 167.425 57.38C167.799 57.1133 168.259 56.9067 168.805 56.76C169.365 56.6133 170.012 56.54 170.745 56.54C170.919 56.54 171.052 56.54 171.145 56.54C171.252 56.54 171.359 56.54 171.465 56.54C171.572 56.54 171.685 56.5467 171.805 56.56C171.939 56.56 172.079 56.56 172.225 56.56V55.5C172.225 55.18 172.179 54.8933 172.085 54.64C171.992 54.3867 171.852 54.18 171.665 54.02C171.492 53.8467 171.259 53.72 170.965 53.64C170.685 53.5467 170.359 53.5 169.985 53.5C169.759 53.5 169.525 53.5133 169.285 53.54C169.059 53.5667 168.825 53.6067 168.585 53.66C168.359 53.7133 168.119 53.78 167.865 53.86C167.625 53.94 167.379 54.0333 167.125 54.14L166.805 52.86C167.112 52.7267 167.399 52.6133 167.665 52.52C167.945 52.4133 168.219 52.3333 168.485 52.28C168.752 52.2133 169.025 52.1667 169.305 52.14C169.585 52.1133 169.885 52.1 170.205 52.1C170.765 52.1 171.259 52.1733 171.685 52.32C172.125 52.4533 172.492 52.6533 172.785 52.92C173.079 53.1867 173.299 53.52 173.445 53.92C173.605 54.3067 173.685 54.7467 173.685 55.24ZM178.272 48.02V62H176.752V48.14L178.272 48.02ZM187.72 62L184.32 52.22H186.06L188.74 60.6H188.84L191.38 52.22H192.94L189.66 62H187.72ZM195.738 59.36C195.738 59.5733 195.771 59.7733 195.838 59.96C195.918 60.1333 196.031 60.2867 196.178 60.42C196.324 60.54 196.504 60.6333 196.718 60.7C196.944 60.7667 197.204 60.8 197.498 60.8C197.738 60.8 197.964 60.7867 198.178 60.76C198.404 60.7333 198.618 60.6933 198.818 60.64C199.031 60.5733 199.238 60.5 199.438 60.42C199.638 60.3267 199.838 60.22 200.038 60.1V57.8C200.024 57.8 199.911 57.8 199.698 57.8C199.498 57.7867 199.338 57.78 199.218 57.78C199.098 57.7667 198.978 57.76 198.858 57.76C198.751 57.76 198.638 57.76 198.518 57.76C198.024 57.76 197.598 57.8 197.238 57.88C196.878 57.96 196.584 58.0733 196.358 58.22C196.144 58.3667 195.984 58.54 195.878 58.74C195.784 58.9267 195.738 59.1333 195.738 59.36ZM201.498 55.24V62H200.078V61.32C199.838 61.4667 199.604 61.5933 199.378 61.7C199.164 61.7933 198.944 61.8733 198.718 61.94C198.491 62.0067 198.251 62.0533 197.998 62.08C197.758 62.1067 197.484 62.12 197.178 62.12C196.711 62.12 196.291 62.06 195.918 61.94C195.544 61.8067 195.224 61.6267 194.958 61.4C194.691 61.16 194.484 60.88 194.338 60.56C194.204 60.2267 194.138 59.8667 194.138 59.48C194.138 59.0533 194.231 58.6667 194.418 58.32C194.604 57.96 194.878 57.6467 195.238 57.38C195.611 57.1133 196.071 56.9067 196.618 56.76C197.178 56.6133 197.824 56.54 198.558 56.54C198.731 56.54 198.864 56.54 198.958 56.54C199.064 56.54 199.171 56.54 199.278 56.54C199.384 56.54 199.498 56.5467 199.618 56.56C199.751 56.56 199.891 56.56 200.038 56.56V55.5C200.038 55.18 199.991 54.8933 199.898 54.64C199.804 54.3867 199.664 54.18 199.478 54.02C199.304 53.8467 199.071 53.72 198.778 53.64C198.498 53.5467 198.171 53.5 197.798 53.5C197.571 53.5 197.338 53.5133 197.098 53.54C196.871 53.5667 196.638 53.6067 196.398 53.66C196.171 53.7133 195.931 53.78 195.678 53.86C195.438 53.94 195.191 54.0333 194.938 54.14L194.618 52.86C194.924 52.7267 195.211 52.6133 195.478 52.52C195.758 52.4133 196.031 52.3333 196.298 52.28C196.564 52.2133 196.838 52.1667 197.118 52.14C197.398 52.1133 197.698 52.1 198.018 52.1C198.578 52.1 199.071 52.1733 199.498 52.32C199.938 52.4533 200.304 52.6533 200.598 52.92C200.891 53.1867 201.111 53.52 201.258 53.92C201.418 54.3067 201.498 54.7467 201.498 55.24ZM210.605 62V55.58C210.605 55.26 210.558 54.9733 210.465 54.72C210.372 54.4667 210.232 54.2533 210.045 54.08C209.858 53.8933 209.625 53.7533 209.345 53.66C209.078 53.5533 208.772 53.5 208.425 53.5C208.198 53.5 207.992 53.5133 207.805 53.54C207.618 53.5533 207.432 53.58 207.245 53.62C207.058 53.66 206.872 53.7133 206.685 53.78C206.498 53.8333 206.298 53.9067 206.085 54V62H204.565V52.28L206.025 52.16V52.82C206.252 52.6867 206.472 52.58 206.685 52.5C206.898 52.4067 207.105 52.3333 207.305 52.28C207.518 52.2133 207.738 52.1667 207.965 52.14C208.192 52.1133 208.438 52.1 208.705 52.1C209.252 52.1 209.738 52.1733 210.165 52.32C210.592 52.4667 210.952 52.68 211.245 52.96C211.538 53.24 211.758 53.5867 211.905 54C212.052 54.4133 212.125 54.8867 212.125 55.42V62H210.605ZM223.511 53.44C223.018 53.44 222.571 53.5267 222.171 53.7C221.784 53.86 221.444 54.1067 221.151 54.44C220.871 54.76 220.658 55.16 220.511 55.64C220.364 56.1067 220.291 56.6333 220.291 57.22C220.291 57.7933 220.358 58.3067 220.491 58.76C220.638 59.2 220.838 59.5667 221.091 59.86C221.344 60.1533 221.644 60.3733 221.991 60.52C222.351 60.6667 222.744 60.74 223.171 60.74C223.384 60.74 223.584 60.7267 223.771 60.7C223.958 60.6733 224.131 60.64 224.291 60.6C224.464 60.5467 224.631 60.48 224.791 60.4C224.951 60.32 225.118 60.2267 225.291 60.12V53.6C225.131 53.5733 224.978 53.5533 224.831 53.54C224.698 53.5133 224.558 53.4933 224.411 53.48C224.264 53.4667 224.118 53.46 223.971 53.46C223.824 53.4467 223.671 53.44 223.511 53.44ZM226.811 48.02V62H225.331V61.36C225.158 61.48 224.971 61.5867 224.771 61.68C224.584 61.7733 224.384 61.8533 224.171 61.92C223.958 61.9867 223.738 62.0333 223.511 62.06C223.284 62.1 223.058 62.12 222.831 62.12C222.231 62.12 221.678 62.02 221.171 61.82C220.678 61.6067 220.244 61.3 219.871 60.9C219.511 60.5 219.224 60 219.011 59.4C218.811 58.8 218.711 58.12 218.711 57.36C218.711 56.5333 218.831 55.7933 219.071 55.14C219.311 54.4733 219.651 53.92 220.091 53.48C220.531 53.0267 221.051 52.6867 221.651 52.46C222.251 52.22 222.911 52.1 223.631 52.1C223.804 52.1 223.964 52.1067 224.111 52.12C224.271 52.12 224.418 52.1333 224.551 52.16C224.684 52.1733 224.811 52.1933 224.931 52.22C225.064 52.2467 225.184 52.28 225.291 52.32V48.14L226.811 48.02ZM229.414 57.12C229.414 56.3067 229.514 55.58 229.714 54.94C229.927 54.3 230.221 53.7667 230.594 53.34C230.967 52.9133 231.401 52.5933 231.894 52.38C232.401 52.1533 232.934 52.04 233.494 52.04C234.081 52.04 234.601 52.1267 235.054 52.3C235.521 52.46 235.914 52.7067 236.234 53.04C236.554 53.3733 236.794 53.7867 236.954 54.28C237.127 54.76 237.214 55.32 237.214 55.96C237.214 56.0933 237.214 56.2067 237.214 56.3C237.214 56.38 237.214 56.4733 237.214 56.58C237.214 56.6733 237.207 56.7733 237.194 56.88C237.194 56.9733 237.187 57.0667 237.174 57.16H230.934C230.934 57.7733 231.007 58.3067 231.154 58.76C231.314 59.2133 231.534 59.5867 231.814 59.88C232.094 60.1733 232.421 60.3933 232.794 60.54C233.181 60.6733 233.607 60.74 234.074 60.74C234.354 60.74 234.621 60.7267 234.874 60.7C235.127 60.6733 235.374 60.64 235.614 60.6C235.854 60.5467 236.094 60.48 236.334 60.4C236.574 60.32 236.814 60.2267 237.054 60.12V61.48C236.787 61.6 236.534 61.7 236.294 61.78C236.054 61.8467 235.807 61.9067 235.554 61.96C235.314 62.0133 235.054 62.0533 234.774 62.08C234.507 62.1067 234.214 62.12 233.894 62.12C233.214 62.12 232.594 62.02 232.034 61.82C231.487 61.62 231.014 61.32 230.614 60.92C230.227 60.5067 229.927 59.9867 229.714 59.36C229.514 58.72 229.414 57.9733 229.414 57.12ZM230.994 55.94H235.594C235.594 55.5133 235.547 55.1333 235.454 54.8C235.361 54.4667 235.221 54.1933 235.034 53.98C234.847 53.7533 234.614 53.5867 234.334 53.48C234.067 53.3733 233.761 53.32 233.414 53.32C233.107 53.32 232.821 53.38 232.554 53.5C232.287 53.62 232.041 53.7933 231.814 54.02C231.601 54.2467 231.421 54.5267 231.274 54.86C231.141 55.18 231.047 55.54 230.994 55.94ZM250.903 62L245.743 50.52H245.663V62H244.183V48.88H246.623L251.783 60.36H251.883V48.88H253.363V62H250.903ZM256.309 57.12C256.309 56.3067 256.409 55.58 256.609 54.94C256.822 54.3 257.115 53.7667 257.489 53.34C257.862 52.9133 258.295 52.5933 258.789 52.38C259.295 52.1533 259.829 52.04 260.389 52.04C260.975 52.04 261.495 52.1267 261.949 52.3C262.415 52.46 262.809 52.7067 263.129 53.04C263.449 53.3733 263.689 53.7867 263.849 54.28C264.022 54.76 264.109 55.32 264.109 55.96C264.109 56.0933 264.109 56.2067 264.109 56.3C264.109 56.38 264.109 56.4733 264.109 56.58C264.109 56.6733 264.102 56.7733 264.089 56.88C264.089 56.9733 264.082 57.0667 264.069 57.16H257.829C257.829 57.7733 257.902 58.3067 258.049 58.76C258.209 59.2133 258.429 59.5867 258.709 59.88C258.989 60.1733 259.315 60.3933 259.689 60.54C260.075 60.6733 260.502 60.74 260.969 60.74C261.249 60.74 261.515 60.7267 261.769 60.7C262.022 60.6733 262.269 60.64 262.509 60.6C262.749 60.5467 262.989 60.48 263.229 60.4C263.469 60.32 263.709 60.2267 263.949 60.12V61.48C263.682 61.6 263.429 61.7 263.189 61.78C262.949 61.8467 262.702 61.9067 262.449 61.96C262.209 62.0133 261.949 62.0533 261.669 62.08C261.402 62.1067 261.109 62.12 260.789 62.12C260.109 62.12 259.489 62.02 258.929 61.82C258.382 61.62 257.909 61.32 257.509 60.92C257.122 60.5067 256.822 59.9867 256.609 59.36C256.409 58.72 256.309 57.9733 256.309 57.12ZM257.889 55.94H262.489C262.489 55.5133 262.442 55.1333 262.349 54.8C262.255 54.4667 262.115 54.1933 261.929 53.98C261.742 53.7533 261.509 53.5867 261.229 53.48C260.962 53.3733 260.655 53.32 260.309 53.32C260.002 53.32 259.715 53.38 259.449 53.5C259.182 53.62 258.935 53.7933 258.709 54.02C258.495 54.2467 258.315 54.5267 258.169 54.86C258.035 55.18 257.942 55.54 257.889 55.94ZM270.796 53.44C270.303 53.44 269.856 53.5267 269.456 53.7C269.069 53.86 268.729 54.1067 268.436 54.44C268.156 54.76 267.943 55.16 267.796 55.64C267.649 56.1067 267.576 56.6333 267.576 57.22C267.576 57.7933 267.643 58.3067 267.776 58.76C267.923 59.2 268.123 59.5667 268.376 59.86C268.629 60.1533 268.929 60.3733 269.276 60.52C269.636 60.6667 270.029 60.74 270.456 60.74C270.669 60.74 270.869 60.7267 271.056 60.7C271.243 60.6733 271.416 60.64 271.576 60.6C271.749 60.5467 271.916 60.48 272.076 60.4C272.236 60.32 272.403 60.2267 272.576 60.12V53.6C272.416 53.5733 272.263 53.5533 272.116 53.54C271.983 53.5133 271.843 53.4933 271.696 53.48C271.549 53.4667 271.403 53.46 271.256 53.46C271.109 53.4467 270.956 53.44 270.796 53.44ZM274.096 48.02V62H272.616V61.36C272.443 61.48 272.256 61.5867 272.056 61.68C271.869 61.7733 271.669 61.8533 271.456 61.92C271.243 61.9867 271.023 62.0333 270.796 62.06C270.569 62.1 270.343 62.12 270.116 62.12C269.516 62.12 268.963 62.02 268.456 61.82C267.963 61.6067 267.529 61.3 267.156 60.9C266.796 60.5 266.509 60 266.296 59.4C266.096 58.8 265.996 58.12 265.996 57.36C265.996 56.5333 266.116 55.7933 266.356 55.14C266.596 54.4733 266.936 53.92 267.376 53.48C267.816 53.0267 268.336 52.6867 268.936 52.46C269.536 52.22 270.196 52.1 270.916 52.1C271.089 52.1 271.249 52.1067 271.396 52.12C271.556 52.12 271.703 52.1333 271.836 52.16C271.969 52.1733 272.096 52.1933 272.216 52.22C272.349 52.2467 272.469 52.28 272.576 52.32V48.14L274.096 48.02ZM276.699 57.12C276.699 56.3067 276.799 55.58 276.999 54.94C277.213 54.3 277.506 53.7667 277.879 53.34C278.253 52.9133 278.686 52.5933 279.179 52.38C279.686 52.1533 280.219 52.04 280.779 52.04C281.366 52.04 281.886 52.1267 282.339 52.3C282.806 52.46 283.199 52.7067 283.519 53.04C283.839 53.3733 284.079 53.7867 284.239 54.28C284.413 54.76 284.499 55.32 284.499 55.96C284.499 56.0933 284.499 56.2067 284.499 56.3C284.499 56.38 284.499 56.4733 284.499 56.58C284.499 56.6733 284.493 56.7733 284.479 56.88C284.479 56.9733 284.473 57.0667 284.459 57.16H278.219C278.219 57.7733 278.293 58.3067 278.439 58.76C278.599 59.2133 278.819 59.5867 279.099 59.88C279.379 60.1733 279.706 60.3933 280.079 60.54C280.466 60.6733 280.893 60.74 281.359 60.74C281.639 60.74 281.906 60.7267 282.159 60.7C282.413 60.6733 282.659 60.64 282.899 60.6C283.139 60.5467 283.379 60.48 283.619 60.4C283.859 60.32 284.099 60.2267 284.339 60.12V61.48C284.073 61.6 283.819 61.7 283.579 61.78C283.339 61.8467 283.093 61.9067 282.839 61.96C282.599 62.0133 282.339 62.0533 282.059 62.08C281.793 62.1067 281.499 62.12 281.179 62.12C280.499 62.12 279.879 62.02 279.319 61.82C278.773 61.62 278.299 61.32 277.899 60.92C277.513 60.5067 277.213 59.9867 276.999 59.36C276.799 58.72 276.699 57.9733 276.699 57.12ZM278.279 55.94H282.879C282.879 55.5133 282.833 55.1333 282.739 54.8C282.646 54.4667 282.506 54.1933 282.319 53.98C282.133 53.7533 281.899 53.5867 281.619 53.48C281.353 53.3733 281.046 53.32 280.699 53.32C280.393 53.32 280.106 53.38 279.839 53.5C279.573 53.62 279.326 53.7933 279.099 54.02C278.886 54.2467 278.706 54.5267 278.559 54.86C278.426 55.18 278.333 55.54 278.279 55.94ZM291.707 52.24L291.527 53.74C291.42 53.7133 291.32 53.6933 291.227 53.68C291.133 53.6533 291.04 53.6333 290.947 53.62C290.867 53.6067 290.78 53.6 290.687 53.6C290.607 53.5867 290.513 53.58 290.407 53.58C290.247 53.58 290.087 53.6 289.927 53.64C289.78 53.68 289.633 53.74 289.487 53.82C289.34 53.9 289.187 54.0067 289.027 54.14C288.867 54.26 288.693 54.4133 288.507 54.6V62H286.987V52.28L288.487 52.16V53.3C288.673 53.0867 288.853 52.9067 289.027 52.76C289.2 52.6 289.367 52.4733 289.527 52.38C289.7 52.2867 289.873 52.22 290.047 52.18C290.22 52.1267 290.393 52.1 290.567 52.1C290.673 52.1 290.773 52.1067 290.867 52.12C290.96 52.12 291.047 52.1267 291.127 52.14C291.22 52.14 291.313 52.1533 291.407 52.18C291.5 52.1933 291.6 52.2133 291.707 52.24ZM295.128 48.02V62H293.608V48.14L295.128 48.02ZM299.214 59.36C299.214 59.5733 299.248 59.7733 299.314 59.96C299.394 60.1333 299.508 60.2867 299.654 60.42C299.801 60.54 299.981 60.6333 300.194 60.7C300.421 60.7667 300.681 60.8 300.974 60.8C301.214 60.8 301.441 60.7867 301.654 60.76C301.881 60.7333 302.094 60.6933 302.294 60.64C302.508 60.5733 302.714 60.5 302.914 60.42C303.114 60.3267 303.314 60.22 303.514 60.1V57.8C303.501 57.8 303.388 57.8 303.174 57.8C302.974 57.7867 302.814 57.78 302.694 57.78C302.574 57.7667 302.454 57.76 302.334 57.76C302.228 57.76 302.114 57.76 301.994 57.76C301.501 57.76 301.074 57.8 300.714 57.88C300.354 57.96 300.061 58.0733 299.834 58.22C299.621 58.3667 299.461 58.54 299.354 58.74C299.261 58.9267 299.214 59.1333 299.214 59.36ZM304.974 55.24V62H303.554V61.32C303.314 61.4667 303.081 61.5933 302.854 61.7C302.641 61.7933 302.421 61.8733 302.194 61.94C301.968 62.0067 301.728 62.0533 301.474 62.08C301.234 62.1067 300.961 62.12 300.654 62.12C300.188 62.12 299.768 62.06 299.394 61.94C299.021 61.8067 298.701 61.6267 298.434 61.4C298.168 61.16 297.961 60.88 297.814 60.56C297.681 60.2267 297.614 59.8667 297.614 59.48C297.614 59.0533 297.708 58.6667 297.894 58.32C298.081 57.96 298.354 57.6467 298.714 57.38C299.088 57.1133 299.548 56.9067 300.094 56.76C300.654 56.6133 301.301 56.54 302.034 56.54C302.208 56.54 302.341 56.54 302.434 56.54C302.541 56.54 302.648 56.54 302.754 56.54C302.861 56.54 302.974 56.5467 303.094 56.56C303.228 56.56 303.368 56.56 303.514 56.56V55.5C303.514 55.18 303.468 54.8933 303.374 54.64C303.281 54.3867 303.141 54.18 302.954 54.02C302.781 53.8467 302.548 53.72 302.254 53.64C301.974 53.5467 301.648 53.5 301.274 53.5C301.048 53.5 300.814 53.5133 300.574 53.54C300.348 53.5667 300.114 53.6067 299.874 53.66C299.648 53.7133 299.408 53.78 299.154 53.86C298.914 53.94 298.668 54.0333 298.414 54.14L298.094 52.86C298.401 52.7267 298.688 52.6133 298.954 52.52C299.234 52.4133 299.508 52.3333 299.774 52.28C300.041 52.2133 300.314 52.1667 300.594 52.14C300.874 52.1133 301.174 52.1 301.494 52.1C302.054 52.1 302.548 52.1733 302.974 52.32C303.414 52.4533 303.781 52.6533 304.074 52.92C304.368 53.1867 304.588 53.52 304.734 53.92C304.894 54.3067 304.974 54.7467 304.974 55.24ZM314.081 62V55.58C314.081 55.26 314.035 54.9733 313.941 54.72C313.848 54.4667 313.708 54.2533 313.521 54.08C313.335 53.8933 313.101 53.7533 312.821 53.66C312.555 53.5533 312.248 53.5 311.901 53.5C311.675 53.5 311.468 53.5133 311.281 53.54C311.095 53.5533 310.908 53.58 310.721 53.62C310.535 53.66 310.348 53.7133 310.161 53.78C309.975 53.8333 309.775 53.9067 309.561 54V62H308.041V52.28L309.501 52.16V52.82C309.728 52.6867 309.948 52.58 310.161 52.5C310.375 52.4067 310.581 52.3333 310.781 52.28C310.995 52.2133 311.215 52.1667 311.441 52.14C311.668 52.1133 311.915 52.1 312.181 52.1C312.728 52.1 313.215 52.1733 313.641 52.32C314.068 52.4667 314.428 52.68 314.721 52.96C315.015 53.24 315.235 53.5867 315.381 54C315.528 54.4133 315.601 54.8867 315.601 55.42V62H314.081ZM322.866 53.44C322.373 53.44 321.926 53.5267 321.526 53.7C321.14 53.86 320.8 54.1067 320.506 54.44C320.226 54.76 320.013 55.16 319.866 55.64C319.72 56.1067 319.646 56.6333 319.646 57.22C319.646 57.7933 319.713 58.3067 319.846 58.76C319.993 59.2 320.193 59.5667 320.446 59.86C320.7 60.1533 321 60.3733 321.346 60.52C321.706 60.6667 322.1 60.74 322.526 60.74C322.74 60.74 322.94 60.7267 323.126 60.7C323.313 60.6733 323.486 60.64 323.646 60.6C323.82 60.5467 323.986 60.48 324.146 60.4C324.306 60.32 324.473 60.2267 324.646 60.12V53.6C324.486 53.5733 324.333 53.5533 324.186 53.54C324.053 53.5133 323.913 53.4933 323.766 53.48C323.62 53.4667 323.473 53.46 323.326 53.46C323.18 53.4467 323.026 53.44 322.866 53.44ZM326.166 48.02V62H324.686V61.36C324.513 61.48 324.326 61.5867 324.126 61.68C323.94 61.7733 323.74 61.8533 323.526 61.92C323.313 61.9867 323.093 62.0333 322.866 62.06C322.64 62.1 322.413 62.12 322.186 62.12C321.586 62.12 321.033 62.02 320.526 61.82C320.033 61.6067 319.6 61.3 319.226 60.9C318.866 60.5 318.58 60 318.366 59.4C318.166 58.8 318.066 58.12 318.066 57.36C318.066 56.5333 318.186 55.7933 318.426 55.14C318.666 54.4733 319.006 53.92 319.446 53.48C319.886 53.0267 320.406 52.6867 321.006 52.46C321.606 52.22 322.266 52.1 322.986 52.1C323.16 52.1 323.32 52.1067 323.466 52.12C323.626 52.12 323.773 52.1333 323.906 52.16C324.04 52.1733 324.166 52.1933 324.286 52.22C324.42 52.2467 324.54 52.28 324.646 52.32V48.14L326.166 48.02ZM328.59 61.8V60.4C328.816 60.4667 329.043 60.5267 329.27 60.58C329.496 60.62 329.723 60.6533 329.95 60.68C330.19 60.7067 330.43 60.7267 330.67 60.74C330.91 60.7533 331.156 60.76 331.41 60.76C331.756 60.76 332.063 60.7267 332.33 60.66C332.596 60.58 332.823 60.48 333.01 60.36C333.196 60.2267 333.336 60.0733 333.43 59.9C333.523 59.7133 333.57 59.5133 333.57 59.3C333.57 59.1133 333.536 58.9467 333.47 58.8C333.416 58.64 333.323 58.5 333.19 58.38C333.056 58.26 332.883 58.1533 332.67 58.06C332.47 57.9533 332.223 57.86 331.93 57.78L330.79 57.44C330.456 57.3467 330.156 57.2267 329.89 57.08C329.636 56.92 329.423 56.74 329.25 56.54C329.076 56.3267 328.943 56.0867 328.85 55.82C328.756 55.5533 328.71 55.26 328.71 54.94C328.71 54.54 328.79 54.1667 328.95 53.82C329.123 53.4733 329.363 53.1733 329.67 52.92C329.99 52.6533 330.37 52.4533 330.81 52.32C331.25 52.1733 331.736 52.1 332.27 52.1C332.496 52.1 332.71 52.1067 332.91 52.12C333.123 52.12 333.323 52.1333 333.51 52.16C333.71 52.1733 333.903 52.1933 334.09 52.22C334.276 52.2467 334.456 52.28 334.63 52.32L334.47 53.66C334.27 53.62 334.076 53.5867 333.89 53.56C333.716 53.5333 333.536 53.5133 333.35 53.5C333.176 53.4867 332.996 53.48 332.81 53.48C332.623 53.4667 332.416 53.46 332.19 53.46C331.87 53.46 331.583 53.4933 331.33 53.56C331.076 53.6267 330.863 53.72 330.69 53.84C330.516 53.96 330.383 54.1067 330.29 54.28C330.21 54.44 330.17 54.6133 330.17 54.8C330.17 54.9867 330.196 55.1533 330.25 55.3C330.303 55.4333 330.383 55.5533 330.49 55.66C330.61 55.7667 330.756 55.8667 330.93 55.96C331.103 56.04 331.31 56.1133 331.55 56.18L332.69 56.48C333.09 56.5867 333.436 56.72 333.73 56.88C334.023 57.04 334.27 57.2267 334.47 57.44C334.67 57.64 334.816 57.8733 334.91 58.14C335.003 58.3933 335.05 58.6733 335.05 58.98C335.05 59.4333 334.956 59.8533 334.77 60.24C334.596 60.6267 334.343 60.96 334.01 61.24C333.69 61.52 333.296 61.74 332.83 61.9C332.376 62.0467 331.876 62.12 331.33 62.12C331.05 62.12 330.79 62.1133 330.55 62.1C330.31 62.0867 330.076 62.0667 329.85 62.04C329.636 62.0133 329.423 61.98 329.21 61.94C329.01 61.9 328.803 61.8533 328.59 61.8ZM336.855 57.12C336.855 56.3067 336.955 55.58 337.155 54.94C337.369 54.3 337.662 53.7667 338.035 53.34C338.409 52.9133 338.842 52.5933 339.335 52.38C339.842 52.1533 340.375 52.04 340.935 52.04C341.522 52.04 342.042 52.1267 342.495 52.3C342.962 52.46 343.355 52.7067 343.675 53.04C343.995 53.3733 344.235 53.7867 344.395 54.28C344.569 54.76 344.655 55.32 344.655 55.96C344.655 56.0933 344.655 56.2067 344.655 56.3C344.655 56.38 344.655 56.4733 344.655 56.58C344.655 56.6733 344.649 56.7733 344.635 56.88C344.635 56.9733 344.629 57.0667 344.615 57.16H338.375C338.375 57.7733 338.449 58.3067 338.595 58.76C338.755 59.2133 338.975 59.5867 339.255 59.88C339.535 60.1733 339.862 60.3933 340.235 60.54C340.622 60.6733 341.049 60.74 341.515 60.74C341.795 60.74 342.062 60.7267 342.315 60.7C342.569 60.6733 342.815 60.64 343.055 60.6C343.295 60.5467 343.535 60.48 343.775 60.4C344.015 60.32 344.255 60.2267 344.495 60.12V61.48C344.229 61.6 343.975 61.7 343.735 61.78C343.495 61.8467 343.249 61.9067 342.995 61.96C342.755 62.0133 342.495 62.0533 342.215 62.08C341.949 62.1067 341.655 62.12 341.335 62.12C340.655 62.12 340.035 62.02 339.475 61.82C338.929 61.62 338.455 61.32 338.055 60.92C337.669 60.5067 337.369 59.9867 337.155 59.36C336.955 58.72 336.855 57.9733 336.855 57.12ZM338.435 55.94H343.035C343.035 55.5133 342.989 55.1333 342.895 54.8C342.802 54.4667 342.662 54.1933 342.475 53.98C342.289 53.7533 342.055 53.5867 341.775 53.48C341.509 53.3733 341.202 53.32 340.855 53.32C340.549 53.32 340.262 53.38 339.995 53.5C339.729 53.62 339.482 53.7933 339.255 54.02C339.042 54.2467 338.862 54.5267 338.715 54.86C338.582 55.18 338.489 55.54 338.435 55.94ZM359.504 57C359.504 57.7867 359.384 58.5067 359.144 59.16C358.904 59.8 358.571 60.3467 358.144 60.8C357.731 61.2533 357.244 61.6 356.684 61.84C356.137 62.0667 355.557 62.18 354.944 62.18C354.291 62.18 353.697 62.08 353.164 61.88C352.644 61.6667 352.197 61.3533 351.824 60.94C351.451 60.5133 351.164 59.9933 350.964 59.38C350.764 58.7533 350.664 58.04 350.664 57.24C350.664 56.4533 350.784 55.7333 351.024 55.08C351.264 54.4267 351.591 53.88 352.004 53.44C352.431 52.9867 352.917 52.64 353.464 52.4C354.011 52.16 354.591 52.04 355.204 52.04C355.857 52.04 356.451 52.1467 356.984 52.36C357.517 52.5733 357.971 52.8867 358.344 53.3C358.717 53.7133 359.004 54.2333 359.204 54.86C359.404 55.4733 359.504 56.1867 359.504 57ZM357.924 57.06C357.924 56.46 357.857 55.9333 357.724 55.48C357.604 55.0133 357.417 54.6267 357.164 54.32C356.924 54.0133 356.624 53.7867 356.264 53.64C355.917 53.48 355.517 53.4 355.064 53.4C354.651 53.4 354.271 53.4867 353.924 53.66C353.577 53.82 353.277 54.0667 353.024 54.4C352.771 54.72 352.577 55.1133 352.444 55.58C352.311 56.0467 352.244 56.5733 352.244 57.16C352.244 57.76 352.304 58.2933 352.424 58.76C352.557 59.2133 352.744 59.5933 352.984 59.9C353.237 60.2067 353.537 60.44 353.884 60.6C354.244 60.7467 354.651 60.82 355.104 60.82C355.517 60.82 355.897 60.7333 356.244 60.56C356.591 60.3867 356.891 60.14 357.144 59.82C357.397 59.4867 357.591 59.0867 357.724 58.62C357.857 58.1533 357.924 57.6333 357.924 57.06ZM364.224 62L360.824 52.22H362.564L365.244 60.6H365.344L367.884 52.22H369.444L366.164 62H364.224ZM370.762 57.12C370.762 56.3067 370.862 55.58 371.062 54.94C371.275 54.3 371.568 53.7667 371.942 53.34C372.315 52.9133 372.748 52.5933 373.242 52.38C373.748 52.1533 374.282 52.04 374.842 52.04C375.428 52.04 375.948 52.1267 376.402 52.3C376.868 52.46 377.262 52.7067 377.582 53.04C377.902 53.3733 378.142 53.7867 378.302 54.28C378.475 54.76 378.562 55.32 378.562 55.96C378.562 56.0933 378.562 56.2067 378.562 56.3C378.562 56.38 378.562 56.4733 378.562 56.58C378.562 56.6733 378.555 56.7733 378.542 56.88C378.542 56.9733 378.535 57.0667 378.522 57.16H372.282C372.282 57.7733 372.355 58.3067 372.502 58.76C372.662 59.2133 372.882 59.5867 373.162 59.88C373.442 60.1733 373.768 60.3933 374.142 60.54C374.528 60.6733 374.955 60.74 375.422 60.74C375.702 60.74 375.968 60.7267 376.222 60.7C376.475 60.6733 376.722 60.64 376.962 60.6C377.202 60.5467 377.442 60.48 377.682 60.4C377.922 60.32 378.162 60.2267 378.402 60.12V61.48C378.135 61.6 377.882 61.7 377.642 61.78C377.402 61.8467 377.155 61.9067 376.902 61.96C376.662 62.0133 376.402 62.0533 376.122 62.08C375.855 62.1067 375.562 62.12 375.242 62.12C374.562 62.12 373.942 62.02 373.382 61.82C372.835 61.62 372.362 61.32 371.962 60.92C371.575 60.5067 371.275 59.9867 371.062 59.36C370.862 58.72 370.762 57.9733 370.762 57.12ZM372.342 55.94H376.942C376.942 55.5133 376.895 55.1333 376.802 54.8C376.708 54.4667 376.568 54.1933 376.382 53.98C376.195 53.7533 375.962 53.5867 375.682 53.48C375.415 53.3733 375.108 53.32 374.762 53.32C374.455 53.32 374.168 53.38 373.902 53.5C373.635 53.62 373.388 53.7933 373.162 54.02C372.948 54.2467 372.768 54.5267 372.622 54.86C372.488 55.18 372.395 55.54 372.342 55.94ZM385.769 52.24L385.589 53.74C385.483 53.7133 385.383 53.6933 385.289 53.68C385.196 53.6533 385.103 53.6333 385.009 53.62C384.929 53.6067 384.843 53.6 384.749 53.6C384.669 53.5867 384.576 53.58 384.469 53.58C384.309 53.58 384.149 53.6 383.989 53.64C383.843 53.68 383.696 53.74 383.549 53.82C383.403 53.9 383.249 54.0067 383.089 54.14C382.929 54.26 382.756 54.4133 382.569 54.6V62H381.049V52.28L382.549 52.16V53.3C382.736 53.0867 382.916 52.9067 383.089 52.76C383.263 52.6 383.429 52.4733 383.589 52.38C383.763 52.2867 383.936 52.22 384.109 52.18C384.283 52.1267 384.456 52.1 384.629 52.1C384.736 52.1 384.836 52.1067 384.929 52.12C385.023 52.12 385.109 52.1267 385.189 52.14C385.283 52.14 385.376 52.1533 385.469 52.18C385.563 52.1933 385.663 52.2133 385.769 52.24ZM393.71 62V55.58C393.71 55.26 393.664 54.9733 393.57 54.72C393.477 54.4667 393.337 54.2533 393.15 54.08C392.964 53.8933 392.73 53.7533 392.45 53.66C392.184 53.5533 391.877 53.5 391.53 53.5C391.304 53.5 391.09 53.5133 390.89 53.54C390.704 53.5533 390.517 53.58 390.33 53.62C390.157 53.66 389.977 53.7133 389.79 53.78C389.604 53.8333 389.404 53.9067 389.19 54V62H387.67V48.14L389.19 48.02V52.78C389.417 52.66 389.63 52.56 389.83 52.48C390.044 52.3867 390.25 52.3133 390.45 52.26C390.664 52.2067 390.877 52.1667 391.09 52.14C391.317 52.1133 391.557 52.1 391.81 52.1C392.357 52.1 392.844 52.1733 393.27 52.32C393.697 52.4667 394.057 52.68 394.35 52.96C394.644 53.24 394.864 53.5867 395.01 54C395.157 54.4133 395.23 54.8867 395.23 55.42V62H393.71ZM397.695 57.12C397.695 56.3067 397.795 55.58 397.995 54.94C398.209 54.3 398.502 53.7667 398.875 53.34C399.249 52.9133 399.682 52.5933 400.175 52.38C400.682 52.1533 401.215 52.04 401.775 52.04C402.362 52.04 402.882 52.1267 403.335 52.3C403.802 52.46 404.195 52.7067 404.515 53.04C404.835 53.3733 405.075 53.7867 405.235 54.28C405.409 54.76 405.495 55.32 405.495 55.96C405.495 56.0933 405.495 56.2067 405.495 56.3C405.495 56.38 405.495 56.4733 405.495 56.58C405.495 56.6733 405.489 56.7733 405.475 56.88C405.475 56.9733 405.469 57.0667 405.455 57.16H399.215C399.215 57.7733 399.289 58.3067 399.435 58.76C399.595 59.2133 399.815 59.5867 400.095 59.88C400.375 60.1733 400.702 60.3933 401.075 60.54C401.462 60.6733 401.889 60.74 402.355 60.74C402.635 60.74 402.902 60.7267 403.155 60.7C403.409 60.6733 403.655 60.64 403.895 60.6C404.135 60.5467 404.375 60.48 404.615 60.4C404.855 60.32 405.095 60.2267 405.335 60.12V61.48C405.069 61.6 404.815 61.7 404.575 61.78C404.335 61.8467 404.089 61.9067 403.835 61.96C403.595 62.0133 403.335 62.0533 403.055 62.08C402.789 62.1067 402.495 62.12 402.175 62.12C401.495 62.12 400.875 62.02 400.315 61.82C399.769 61.62 399.295 61.32 398.895 60.92C398.509 60.5067 398.209 59.9867 397.995 59.36C397.795 58.72 397.695 57.9733 397.695 57.12ZM399.275 55.94H403.875C403.875 55.5133 403.829 55.1333 403.735 54.8C403.642 54.4667 403.502 54.1933 403.315 53.98C403.129 53.7533 402.895 53.5867 402.615 53.48C402.349 53.3733 402.042 53.32 401.695 53.32C401.389 53.32 401.102 53.38 400.835 53.5C400.569 53.62 400.322 53.7933 400.095 54.02C399.882 54.2467 399.702 54.5267 399.555 54.86C399.422 55.18 399.329 55.54 399.275 55.94ZM407.763 49.02C407.763 48.8733 407.783 48.74 407.823 48.62C407.876 48.4867 407.943 48.38 408.023 48.3C408.116 48.22 408.223 48.16 408.343 48.12C408.463 48.0667 408.596 48.04 408.743 48.04C408.889 48.04 409.023 48.0667 409.143 48.12C409.263 48.16 409.363 48.22 409.443 48.3C409.523 48.38 409.583 48.48 409.623 48.6C409.676 48.72 409.703 48.86 409.703 49.02C409.703 49.1667 409.676 49.3 409.623 49.42C409.583 49.54 409.523 49.64 409.443 49.72C409.363 49.8 409.263 49.8667 409.143 49.92C409.023 49.96 408.889 49.98 408.743 49.98C408.596 49.98 408.463 49.96 408.343 49.92C408.223 49.8667 408.116 49.8 408.023 49.72C407.943 49.64 407.876 49.54 407.823 49.42C407.783 49.3 407.763 49.1667 407.763 49.02ZM409.503 52.16V62H407.983V52.28L409.503 52.16ZM416.909 53.44C416.416 53.44 415.969 53.5267 415.569 53.7C415.183 53.86 414.843 54.1067 414.549 54.44C414.269 54.76 414.056 55.16 413.909 55.64C413.763 56.1067 413.689 56.6333 413.689 57.22C413.689 57.7933 413.756 58.3067 413.889 58.76C414.036 59.2 414.236 59.5667 414.489 59.86C414.743 60.1533 415.043 60.3733 415.389 60.52C415.749 60.6667 416.143 60.74 416.569 60.74C416.783 60.74 416.983 60.7267 417.169 60.7C417.356 60.6733 417.529 60.64 417.689 60.6C417.863 60.5467 418.029 60.48 418.189 60.4C418.349 60.32 418.516 60.2267 418.689 60.12V53.6C418.529 53.5733 418.376 53.5533 418.229 53.54C418.096 53.5133 417.956 53.4933 417.809 53.48C417.663 53.4667 417.516 53.46 417.369 53.46C417.223 53.4467 417.069 53.44 416.909 53.44ZM420.209 48.02V62H418.729V61.36C418.556 61.48 418.369 61.5867 418.169 61.68C417.983 61.7733 417.783 61.8533 417.569 61.92C417.356 61.9867 417.136 62.0333 416.909 62.06C416.683 62.1 416.456 62.12 416.229 62.12C415.629 62.12 415.076 62.02 414.569 61.82C414.076 61.6067 413.643 61.3 413.269 60.9C412.909 60.5 412.623 60 412.409 59.4C412.209 58.8 412.109 58.12 412.109 57.36C412.109 56.5333 412.229 55.7933 412.469 55.14C412.709 54.4733 413.049 53.92 413.489 53.48C413.929 53.0267 414.449 52.6867 415.049 52.46C415.649 52.22 416.309 52.1 417.029 52.1C417.203 52.1 417.363 52.1067 417.509 52.12C417.669 52.12 417.816 52.1333 417.949 52.16C418.083 52.1733 418.209 52.1933 418.329 52.22C418.463 52.2467 418.583 52.28 418.689 52.32V48.14L420.209 48.02Z" fill="#01689B"/>
<path d="M60.944 23.672C59.432 23.672 58.22 24.176 57.308 25.184C56.396 26.168 55.94 27.524 55.94 29.252C55.94 31.076 56.336 32.396 57.128 33.212C57.944 34.004 58.976 34.4 60.224 34.4C60.824 34.4 61.352 34.352 61.808 34.256C62.264 34.136 62.78 33.944 63.356 33.68V23.852C62.948 23.804 62.552 23.768 62.168 23.744C61.808 23.696 61.4 23.672 60.944 23.672ZM67.748 12.836V38H63.464V36.776C62.84 37.232 62.132 37.592 61.34 37.856C60.572 38.096 59.744 38.216 58.856 38.216C56.624 38.216 54.824 37.484 53.456 36.02C52.112 34.532 51.44 32.348 51.44 29.468C51.44 26.54 52.34 24.224 54.14 22.52C55.94 20.792 58.184 19.928 60.872 19.928C61.304 19.928 61.712 19.952 62.096 20C62.504 20.024 62.912 20.084 63.32 20.18V13.052L67.748 12.836ZM71.6197 29.108C71.6197 26.084 72.4117 23.78 73.9957 22.196C75.6037 20.612 77.5357 19.82 79.7917 19.82C81.9757 19.82 83.7157 20.468 85.0117 21.764C86.3077 23.06 86.9557 24.848 86.9557 27.128C86.9557 27.728 86.9437 28.328 86.9197 28.928C86.8957 29.504 86.8597 29.984 86.8117 30.368H75.8677C76.1317 31.784 76.7077 32.828 77.5957 33.5C78.4837 34.172 79.7197 34.508 81.3037 34.508C82.3117 34.508 83.1997 34.448 83.9677 34.328C84.7357 34.184 85.5517 33.98 86.4157 33.716V37.316C85.4557 37.604 84.5677 37.832 83.7517 38C82.9357 38.144 81.9277 38.216 80.7277 38.216C77.9437 38.216 75.7237 37.472 74.0677 35.984C72.4357 34.472 71.6197 32.18 71.6197 29.108ZM75.8677 27.2H82.7077C82.7077 26.024 82.4077 25.064 81.8077 24.32C81.2317 23.576 80.4517 23.204 79.4677 23.204C78.5557 23.204 77.7637 23.552 77.0917 24.248C76.4437 24.92 76.0357 25.904 75.8677 27.2ZM93.9723 38L88.3923 20.144H93.4683L97.1043 34.58H97.3923L100.992 20.144H105.6L100.092 38H93.9723ZM107.128 29.108C107.128 26.084 107.92 23.78 109.504 22.196C111.112 20.612 113.044 19.82 115.3 19.82C117.484 19.82 119.224 20.468 120.52 21.764C121.816 23.06 122.464 24.848 122.464 27.128C122.464 27.728 122.452 28.328 122.428 28.928C122.404 29.504 122.368 29.984 122.32 30.368H111.376C111.64 31.784 112.216 32.828 113.104 33.5C113.992 34.172 115.228 34.508 116.812 34.508C117.82 34.508 118.708 34.448 119.476 34.328C120.244 34.184 121.06 33.98 121.924 33.716V37.316C120.964 37.604 120.076 37.832 119.26 38C118.444 38.144 117.436 38.216 116.236 38.216C113.452 38.216 111.232 37.472 109.576 35.984C107.944 34.472 107.128 32.18 107.128 29.108ZM111.376 27.2H118.216C118.216 26.024 117.916 25.064 117.316 24.32C116.74 23.576 115.96 23.204 114.976 23.204C114.064 23.204 113.272 23.552 112.6 24.248C111.952 24.92 111.544 25.904 111.376 27.2ZM130.704 12.836V38H126.276V13.052L130.704 12.836ZM152.081 28.748C152.081 31.676 151.181 34.004 149.381 35.732C147.581 37.46 145.481 38.324 143.081 38.324C140.609 38.324 138.569 37.58 136.961 36.092C135.377 34.58 134.585 32.36 134.585 29.432C134.585 26.504 135.485 24.176 137.285 22.448C139.085 20.696 141.185 19.82 143.585 19.82C146.057 19.82 148.085 20.576 149.669 22.088C151.277 23.6 152.081 25.82 152.081 28.748ZM147.581 28.856C147.581 27.128 147.185 25.844 146.393 25.004C145.601 24.14 144.581 23.708 143.333 23.708C142.157 23.708 141.149 24.188 140.309 25.148C139.493 26.084 139.085 27.464 139.085 29.288C139.085 31.016 139.469 32.312 140.237 33.176C141.029 34.016 142.061 34.436 143.333 34.436C144.509 34.436 145.505 33.956 146.321 32.996C147.161 32.036 147.581 30.656 147.581 28.856ZM162.391 34.472C163.999 34.472 165.283 34.016 166.243 33.104C167.227 32.168 167.719 30.716 167.719 28.748C167.719 27.14 167.335 25.952 166.567 25.184C165.823 24.392 164.815 23.996 163.543 23.996C162.943 23.996 162.403 24.044 161.923 24.14C161.467 24.212 160.951 24.356 160.375 24.572V34.292C160.807 34.364 161.155 34.412 161.419 34.436C161.683 34.46 162.007 34.472 162.391 34.472ZM155.983 44.876V20.252L160.267 20.072V21.44C160.867 20.984 161.563 20.624 162.355 20.36C163.147 20.072 163.987 19.928 164.875 19.928C167.107 19.928 168.883 20.636 170.203 22.052C171.547 23.468 172.219 25.592 172.219 28.424C172.219 31.568 171.319 33.992 169.519 35.696C167.719 37.376 165.379 38.216 162.499 38.216C162.067 38.216 161.695 38.192 161.383 38.144C161.071 38.12 160.747 38.072 160.411 38V44.876H155.983ZM175.085 29.108C175.085 26.084 175.877 23.78 177.461 22.196C179.069 20.612 181.001 19.82 183.257 19.82C185.441 19.82 187.181 20.468 188.477 21.764C189.773 23.06 190.421 24.848 190.421 27.128C190.421 27.728 190.409 28.328 190.385 28.928C190.361 29.504 190.325 29.984 190.277 30.368H179.333C179.597 31.784 180.173 32.828 181.061 33.5C181.949 34.172 183.185 34.508 184.769 34.508C185.777 34.508 186.665 34.448 187.433 34.328C188.201 34.184 189.017 33.98 189.881 33.716V37.316C188.921 37.604 188.033 37.832 187.217 38C186.401 38.144 185.393 38.216 184.193 38.216C181.409 38.216 179.189 37.472 177.533 35.984C175.901 34.472 175.085 32.18 175.085 29.108ZM179.333 27.2H186.173C186.173 26.024 185.873 25.064 185.273 24.32C184.697 23.576 183.917 23.204 182.933 23.204C182.021 23.204 181.229 23.552 180.557 24.248C179.909 24.92 179.501 25.904 179.333 27.2ZM204.421 20.18L204.133 24.392C203.749 24.296 203.413 24.236 203.125 24.212C202.837 24.164 202.501 24.14 202.117 24.14C201.565 24.14 201.001 24.236 200.425 24.428C199.849 24.596 199.261 24.896 198.661 25.328V38H194.233V20.252L198.625 20.072V22.124C199.225 21.332 199.813 20.768 200.389 20.432C200.989 20.096 201.637 19.928 202.333 19.928C202.741 19.928 203.113 19.952 203.449 20C203.785 20.024 204.109 20.084 204.421 20.18ZM203.462 35.12C203.462 34.232 203.702 33.488 204.182 32.888C204.686 32.264 205.418 31.952 206.378 31.952C207.314 31.952 208.034 32.228 208.538 32.78C209.066 33.308 209.33 34.088 209.33 35.12C209.33 35.984 209.078 36.716 208.574 37.316C208.094 37.892 207.374 38.18 206.414 38.18C205.478 38.18 204.746 37.928 204.218 37.424C203.714 36.896 203.462 36.128 203.462 35.12ZM229.987 28.748C229.987 31.676 229.087 34.004 227.287 35.732C225.487 37.46 223.387 38.324 220.987 38.324C218.515 38.324 216.475 37.58 214.867 36.092C213.283 34.58 212.491 32.36 212.491 29.432C212.491 26.504 213.391 24.176 215.191 22.448C216.991 20.696 219.091 19.82 221.491 19.82C223.963 19.82 225.991 20.576 227.575 22.088C229.183 23.6 229.987 25.82 229.987 28.748ZM225.487 28.856C225.487 27.128 225.091 25.844 224.299 25.004C223.507 24.14 222.487 23.708 221.239 23.708C220.063 23.708 219.055 24.188 218.215 25.148C217.399 26.084 216.991 27.464 216.991 29.288C216.991 31.016 217.375 32.312 218.143 33.176C218.935 34.016 219.967 34.436 221.239 34.436C222.415 34.436 223.411 33.956 224.227 32.996C225.067 32.036 225.487 30.656 225.487 28.856ZM237.093 38L231.513 20.144H236.589L240.225 34.58H240.513L244.113 20.144H248.721L243.213 38H237.093ZM250.249 29.108C250.249 26.084 251.041 23.78 252.625 22.196C254.233 20.612 256.165 19.82 258.421 19.82C260.605 19.82 262.345 20.468 263.641 21.764C264.937 23.06 265.585 24.848 265.585 27.128C265.585 27.728 265.573 28.328 265.549 28.928C265.525 29.504 265.489 29.984 265.441 30.368H254.497C254.761 31.784 255.337 32.828 256.225 33.5C257.113 34.172 258.349 34.508 259.933 34.508C260.941 34.508 261.829 34.448 262.597 34.328C263.365 34.184 264.181 33.98 265.045 33.716V37.316C264.085 37.604 263.197 37.832 262.381 38C261.565 38.144 260.557 38.216 259.357 38.216C256.573 38.216 254.353 37.472 252.697 35.984C251.065 34.472 250.249 32.18 250.249 29.108ZM254.497 27.2H261.337C261.337 26.024 261.037 25.064 260.437 24.32C259.861 23.576 259.081 23.204 258.097 23.204C257.185 23.204 256.393 23.552 255.721 24.248C255.073 24.92 254.665 25.904 254.497 27.2ZM279.585 20.18L279.297 24.392C278.913 24.296 278.577 24.236 278.289 24.212C278.001 24.164 277.665 24.14 277.281 24.14C276.729 24.14 276.165 24.236 275.589 24.428C275.013 24.596 274.425 24.896 273.825 25.328V38H269.397V20.252L273.789 20.072V22.124C274.389 21.332 274.977 20.768 275.553 20.432C276.153 20.096 276.801 19.928 277.497 19.928C277.905 19.928 278.277 19.952 278.613 20C278.949 20.024 279.273 20.084 279.585 20.18ZM292.642 38V27.236C292.642 26.06 292.378 25.232 291.85 24.752C291.322 24.248 290.554 23.996 289.546 23.996C288.946 23.996 288.394 24.044 287.89 24.14C287.386 24.212 286.858 24.356 286.306 24.572V38H281.878V13.052L286.306 12.836V21.332C287.098 20.828 287.854 20.468 288.574 20.252C289.294 20.036 290.062 19.928 290.878 19.928C292.798 19.928 294.31 20.48 295.414 21.584C296.518 22.664 297.07 24.236 297.07 26.3V38H292.642ZM300.663 29.108C300.663 26.084 301.455 23.78 303.039 22.196C304.647 20.612 306.579 19.82 308.835 19.82C311.019 19.82 312.759 20.468 314.055 21.764C315.351 23.06 315.999 24.848 315.999 27.128C315.999 27.728 315.987 28.328 315.963 28.928C315.939 29.504 315.903 29.984 315.855 30.368H304.911C305.175 31.784 305.751 32.828 306.639 33.5C307.527 34.172 308.763 34.508 310.347 34.508C311.355 34.508 312.243 34.448 313.011 34.328C313.779 34.184 314.595 33.98 315.459 33.716V37.316C314.499 37.604 313.611 37.832 312.795 38C311.979 38.144 310.971 38.216 309.771 38.216C306.987 38.216 304.767 37.472 303.111 35.984C301.479 34.472 300.663 32.18 300.663 29.108ZM304.911 27.2H311.751C311.751 26.024 311.451 25.064 310.851 24.32C310.275 23.576 309.495 23.204 308.511 23.204C307.599 23.204 306.807 23.552 306.135 24.248C305.487 24.92 305.079 25.904 304.911 27.2ZM319.451 15.284C319.451 14.612 319.667 14.024 320.099 13.52C320.555 13.016 321.191 12.764 322.007 12.764C322.823 12.764 323.447 13.004 323.879 13.484C324.335 13.964 324.563 14.564 324.563 15.284C324.563 15.932 324.335 16.508 323.879 17.012C323.447 17.492 322.823 17.732 322.007 17.732C321.191 17.732 320.555 17.504 320.099 17.048C319.667 16.568 319.451 15.98 319.451 15.284ZM324.239 20.072V38H319.811V20.252L324.239 20.072ZM337.624 23.672C336.112 23.672 334.9 24.176 333.988 25.184C333.076 26.168 332.62 27.524 332.62 29.252C332.62 31.076 333.016 32.396 333.808 33.212C334.624 34.004 335.656 34.4 336.904 34.4C337.504 34.4 338.032 34.352 338.488 34.256C338.944 34.136 339.46 33.944 340.036 33.68V23.852C339.628 23.804 339.232 23.768 338.848 23.744C338.488 23.696 338.08 23.672 337.624 23.672ZM344.428 12.836V38H340.144V36.776C339.52 37.232 338.812 37.592 338.02 37.856C337.252 38.096 336.424 38.216 335.536 38.216C333.304 38.216 331.504 37.484 330.136 36.02C328.792 34.532 328.12 32.348 328.12 29.468C328.12 26.54 329.02 24.224 330.82 22.52C332.62 20.792 334.864 19.928 337.552 19.928C337.984 19.928 338.392 19.952 338.776 20C339.184 20.024 339.592 20.084 340 20.18V13.052L344.428 12.836ZM348.587 35.12C348.587 34.232 348.827 33.488 349.307 32.888C349.811 32.264 350.543 31.952 351.503 31.952C352.439 31.952 353.159 32.228 353.663 32.78C354.191 33.308 354.455 34.088 354.455 35.12C354.455 35.984 354.203 36.716 353.699 37.316C353.219 37.892 352.499 38.18 351.539 38.18C350.603 38.18 349.871 37.928 349.343 37.424C348.839 36.896 348.587 36.128 348.587 35.12ZM369.388 38V27.236C369.388 26.06 369.124 25.232 368.596 24.752C368.068 24.248 367.3 23.996 366.292 23.996C365.692 23.996 365.152 24.044 364.672 24.14C364.192 24.212 363.652 24.356 363.052 24.572V38H358.624V20.252L362.908 20.072V21.404C363.676 20.876 364.432 20.504 365.176 20.288C365.92 20.048 366.736 19.928 367.624 19.928C369.544 19.928 371.056 20.48 372.16 21.584C373.264 22.664 373.816 24.236 373.816 26.3V38H369.388ZM382.845 12.836V38H378.417V13.052L382.845 12.836Z" fill="black"/>
<path fill-rule="evenodd" clip-rule="evenodd" d="M16.0731 19.0396L3.7037 7.36291L7.01667 3.69238L23.2108 19.103L19.7073 22.4703L7.38556 34.5153L3.88902 30.8448L16.0731 19.0396Z" fill="#01689B"/>
<path d="M45.8422 33.5933H22.286V38.1823H45.8422V33.5933Z" fill="#8FCAE7"/>
</svg>
